<?xml version="1.0" encoding="utf-8"?>
<!-- Generator: Adobe Illustrator 22.1.0, SVG Export Plug-In . SVG Version: 6.00 Build 0)  -->
<svg version="1.1" xmlns="http://www.w3.org/2000/svg" xmlns:xlink="http://www.w3.org/1999/xlink" x="0px" y="0px"
	 viewBox="0 0 372.2 191.1" style="enable-background:new 0 0 372.2 191.1;" xml:space="preserve">
<style type="text/css">
	.st0{stroke:#000000;stroke-miterlimit:10;}
</style>
<g id="Layer_1">
	<g>
		<path class="st0" d="M121.7,61.8c-4.4,1.8-11.2,2.4-18.7,2.4c-16,0-35.2-2.8-41.9-2.8c-40.2,0-55.5,20.7-55.5,42.4
			c0,11.7,6.2,15.8,17.4,15.8c-0.2-1.5-2.3-2.8-2.3-11.1C20.7,81,35,75.8,53.2,75.8L30.1,183.4h23.5L76,78.5
			c10.9,2,21.5,4.2,30.1,4.2C119.2,82.8,119.4,68.6,121.7,61.8z"/>
		<path class="st0" d="M135.8,102c-6.8,0-13.4,3.6-19.2,8.1l1.8-8.1H94.9l-17.3,81.4h23.5l13.5-63.9c3.7-3.4,6.4-5.2,11.2-5.2
			c4.9,0,0.3,10.8,9.4,10.8c8,0,12.2-7,12.2-12.7C147.6,106.2,143.2,102,135.8,102z"/>
		<path class="st0" d="M354.7,101.3v-2.3l-23.6,4.9c-2.8,12.4-6,26.7-11.6,37.3c-6.2,0.5-11.8,7.3-12.3,19.1
			c-4.9,4.2-10.1,8.2-14.4,8.2c-6.4,0-8.1-2.4-8.1-6c0-1.3,0.3-2.8,0.8-5.2l18.7-88l-24.1,3.3l-18.1,84.7c-0.2,0.7-0.3,1.4-0.4,2.1
			c-5.2,4.5-10.8,9.1-15.4,9.1c-6.4,0-8.1-2.4-8.1-6c0-1.3,0.3-2.8,0.8-5.2l18.7-88l-24.1,3.3l-10.5,49.1c-3,2.1-6,4-10.5,4
			c-2.3,0-3.7-0.5-4.7-1.5c-0.3-11.9-4.2-23.9-19.7-23.9c-22.5,0-42.8,17.3-42.8,57.3c0,19.4,7.5,26.7,24.9,26.7
			c16.3,0,34-16.1,37.1-48.9c5.2-1.4,10-3.7,14.2-6.4l-6,28.3c-0.7,3.1-1,5.9-1,8.3c0,12.2,7.7,17.8,20.2,17.8
			c7.9,0,18.1-8.5,26.4-16.6c0.5,11.4,8,16.6,20.2,16.6c7.9,0,17.9-8.3,26.2-16.4c1.8,12.2,10.8,16.4,27.5,16.4
			c22,0,31.6-13.2,31.6-28.3C366.6,136,354.7,128.2,354.7,101.3z M195.3,137.2c-2,15.8-7.5,31.4-17.4,31.4
			c-6.4,0-10.9-2.6-10.9-12.4c0-13,6.5-46.3,21.8-46.3c4.6,0,6.4,3.1,6.8,8.5c-4.4,1.6-7.2,6.7-7.2,11.4
			C188.4,133.8,190.6,137.2,195.3,137.2z M329.3,173.8c-8.6,0-13.8-4.2-13.8-13.8c2,1,3.9,1.5,5.9,1.5c5.7,0,10.6-4.2,10.8-10.4
			c0-4.9-1.5-7.8-5.4-9.1c3.6-8.1,5.9-18.6,8.5-26.6c0.3,20.4,7.7,29,7.7,39.1C342.9,167,334.9,173.8,329.3,173.8z"/>
	</g>
	<g>
		<path class="st0" d="M129.5,22.2V20c0-3.7-2-5.7-4.2-5.7c-2.4,0-4.2,1.7-4.2,4.2c0,2.3,0.5,4,2.6,6.5l9.4,10.8
			c3.8,4.3,6.1,7.2,6.1,13.4c0,7.6-6.4,11.9-14,11.9c-7.6,0-13.7-4.3-13.7-11.9v-5.5h9.5v4.9c0,3.2,1.8,4.8,4.2,4.8
			c2.3,0,4.2-1.7,4.2-4.8c0-2.8-1.1-4.9-3.1-7.2l-7.9-8.1c-5-5.9-7.1-7.5-7.1-14.8c0-7.2,5.7-11.8,13.8-11.8c8,0,13.7,4.8,13.7,11.8
			v3.7H129.5z"/>
		<path class="st0" d="M162.1,47.9H153l-1.8,12.3h-8.9l10.9-52.8h9.4l10.9,52.8H164L162.1,47.9z M160.6,40.3l-2.9-18.9h-0.2
			l-2.9,18.9H160.6z"/>
		<path class="st0" d="M200.8,52.7v7.5h-21.8V7.4h9.4v45.3H200.8z"/>
		<path class="st0" d="M228.7,14.9h-9.7v45.4h-9.4V14.9h-9.7V7.4h28.8V14.9z"/>
		<path class="st0" d="M253.4,60.2h-9.1V39.7l-11-32.3h9.2l6.4,25.5h0.2l6.1-25.5h9.3l-11,32.3V60.2z"/>
	</g>
</g>
<g id="Layer_2">
</g>
</svg>
